<?xml version="1.0"?>
<svg xmlns="http://www.w3.org/2000/svg" xmlns:xlink="http://www.w3.org/1999/xlink" version="1.1" id="Layer_1" x="0px" y="0px" viewBox="0 0 512 512" style="enable-background:new 0 0 512 512;" xml:space="preserve" width="512px" height="512px" class=""><g transform="matrix(0.0590399 0 0 0.0590399 240.886 240.886)"><circle style="fill:#FFEDB5;" cx="256" cy="256" r="256" data-original="#FFEDB5" class=""/><path style="fill:#FEE187;" d="M299.022,130.725L130.184,381.275l130.663,130.663c112.435-2.089,207.141-76.652,239.361-178.943  L299.022,130.725z" data-original="#FEE187" class=""/><path style="fill:#13A564;" d="M321.469,381.275h60.349l-82.796-250.549h-84.959l75.073,227.181  C293.743,371.855,306.778,381.275,321.469,381.275z" data-original="#13A564" class=""/><path style="fill:#0B7243;" d="M289.133,357.907c1.793,5.423,4.863,10.159,8.804,13.926V130.725h-83.877L289.133,357.907z" data-original="#0B7243" class=""/><path style="fill:#4E7BBE" d="M190.531,381.275h-60.347l82.796-250.551h84.959l-75.073,227.181  C218.257,371.855,205.222,381.275,190.531,381.275z" data-original="#4E7BBE" class="active-path"/></g> </svg>
